<mxfile host="app.diagrams.net" modified="2024-02-12T03:39:09.204Z" agent="Mozilla/5.0 (Windows NT 10.0; Win64; x64) AppleWebKit/537.36 (KHTML, like Gecko) Chrome/121.0.0.0 Safari/537.36" etag="ZB6Fw5d-cQ9mX20gR0Mp" version="23.1.2" type="device">
  <diagram name="Page-1" id="hw8AqW0uEMOyuw7Nzz4N">
    <mxGraphModel dx="1367" dy="911" grid="1" gridSize="10" guides="1" tooltips="1" connect="1" arrows="1" fold="1" page="1" pageScale="1" pageWidth="850" pageHeight="1100" math="0" shadow="0">
      <root>
        <mxCell id="0" />
        <mxCell id="1" parent="0" />
        <mxCell id="Whm5asSrESnExFaa3-xb-1" value="Repo" style="rounded=0;whiteSpace=wrap;html=1;fillColor=#dae8fc;strokeColor=#6c8ebf;" vertex="1" parent="1">
          <mxGeometry x="110" y="220" width="120" height="60" as="geometry" />
        </mxCell>
        <mxCell id="Whm5asSrESnExFaa3-xb-2" value="Azure" style="rounded=0;whiteSpace=wrap;html=1;fillColor=#dae8fc;strokeColor=#6c8ebf;" vertex="1" parent="1">
          <mxGeometry x="310" y="220" width="120" height="60" as="geometry" />
        </mxCell>
        <mxCell id="Whm5asSrESnExFaa3-xb-3" value="" style="image;aspect=fixed;html=1;points=[];align=center;fontSize=12;image=img/lib/azure2/app_services/App_Services.svg;" vertex="1" parent="1">
          <mxGeometry x="400" y="250" width="40" height="40" as="geometry" />
        </mxCell>
        <mxCell id="Whm5asSrESnExFaa3-xb-4" value="" style="shape=image;html=1;verticalAlign=top;verticalLabelPosition=bottom;labelBackgroundColor=#ffffff;imageAspect=0;aspect=fixed;image=https://cdn4.iconfinder.com/data/icons/ionicons/512/icon-social-github-128.png" vertex="1" parent="1">
          <mxGeometry x="190" y="250" width="50" height="50" as="geometry" />
        </mxCell>
        <mxCell id="Whm5asSrESnExFaa3-xb-5" value="" style="endArrow=classic;html=1;rounded=0;exitX=1;exitY=0.5;exitDx=0;exitDy=0;entryX=-0.05;entryY=0.483;entryDx=0;entryDy=0;entryPerimeter=0;flowAnimation=1;fillColor=#dae8fc;strokeColor=#6c8ebf;" edge="1" parent="1" source="Whm5asSrESnExFaa3-xb-1" target="Whm5asSrESnExFaa3-xb-2">
          <mxGeometry width="50" height="50" relative="1" as="geometry">
            <mxPoint x="400" y="490" as="sourcePoint" />
            <mxPoint x="450" y="440" as="targetPoint" />
          </mxGeometry>
        </mxCell>
        <mxCell id="Whm5asSrESnExFaa3-xb-7" value="" style="html=1;verticalLabelPosition=bottom;align=center;labelBackgroundColor=#ffffff;verticalAlign=top;strokeWidth=2;strokeColor=#0080F0;shadow=0;dashed=0;shape=mxgraph.ios7.icons.user;" vertex="1" parent="1">
          <mxGeometry x="360" y="80" width="30" height="30" as="geometry" />
        </mxCell>
        <mxCell id="Whm5asSrESnExFaa3-xb-8" value="" style="endArrow=classic;html=1;rounded=0;exitX=0.9;exitY=0.867;exitDx=0;exitDy=0;exitPerimeter=0;flowAnimation=1;fillColor=#dae8fc;strokeColor=#6c8ebf;" edge="1" parent="1" source="Whm5asSrESnExFaa3-xb-7">
          <mxGeometry width="50" height="50" relative="1" as="geometry">
            <mxPoint x="400" y="490" as="sourcePoint" />
            <mxPoint x="387" y="220" as="targetPoint" />
          </mxGeometry>
        </mxCell>
        <mxCell id="Whm5asSrESnExFaa3-xb-13" value="" style="endArrow=classic;html=1;rounded=0;exitX=0;exitY=0.75;exitDx=0;exitDy=0;entryX=1.025;entryY=0.6;entryDx=0;entryDy=0;entryPerimeter=0;flowAnimation=1;fillColor=#dae8fc;strokeColor=#6c8ebf;" edge="1" parent="1" source="Whm5asSrESnExFaa3-xb-9" target="Whm5asSrESnExFaa3-xb-3">
          <mxGeometry width="50" height="50" relative="1" as="geometry">
            <mxPoint x="400" y="490" as="sourcePoint" />
            <mxPoint x="450" y="440" as="targetPoint" />
          </mxGeometry>
        </mxCell>
        <mxCell id="Whm5asSrESnExFaa3-xb-14" value="" style="endArrow=classic;html=1;rounded=0;exitX=1.008;exitY=0.4;exitDx=0;exitDy=0;entryX=0;entryY=0.25;entryDx=0;entryDy=0;exitPerimeter=0;flowAnimation=1;fillColor=#dae8fc;strokeColor=#6c8ebf;" edge="1" parent="1" source="Whm5asSrESnExFaa3-xb-2" target="Whm5asSrESnExFaa3-xb-9">
          <mxGeometry width="50" height="50" relative="1" as="geometry">
            <mxPoint x="400" y="490" as="sourcePoint" />
            <mxPoint x="450" y="440" as="targetPoint" />
          </mxGeometry>
        </mxCell>
        <mxCell id="Whm5asSrESnExFaa3-xb-9" value="Promptflow" style="rounded=0;whiteSpace=wrap;html=1;container=0;fillColor=#d5e8d4;strokeColor=#82b366;" vertex="1" parent="1">
          <mxGeometry x="544" y="230" width="120" height="60" as="geometry" />
        </mxCell>
        <mxCell id="Whm5asSrESnExFaa3-xb-10" value="" style="editableCssRules=.*;html=1;shape=image;verticalLabelPosition=bottom;labelBackgroundColor=#ffffff;verticalAlign=top;aspect=fixed;imageAspect=0;image=data:image/svg+xml,PHN2ZyB4bWxucz0iaHR0cDovL3d3dy53My5vcmcvMjAwMC9zdmciIHhtbG5zOnY9Imh0dHBzOi8vdmVjdGEuaW8vbmFubyIgd2lkdGg9IjE3IiBoZWlnaHQ9IjE4IiB2aWV3Qm94PSIwIDAgMTcgMTgiPiYjeGE7CTxzdHlsZSB0eXBlPSJ0ZXh0L2NzcyI+JiN4YTsJLnN0MHtmaWxsOiM0Mjg1ZjQ7fSYjeGE7CTwvc3R5bGU+JiN4YTsJPHBhdGggY2xhc3M9InN0MCIgZD0iTTExIDE2aDJ2MmgtMnptNCAwaDJ2MmgtMnptMC04aDJ2MmgtMnptLTQtOGgydjJoLTJ6bTQgMGgydjJoLTJ6TTMuNTcgNy4zMkw3IDE0bDMtNGgzVjhIOWwtMS43NCAyLjM0TDQgNCAyIDYuMjFWMmg3VjBIMmEyIDIgMCAwIDAtMiAydjE0YTIgMiAwIDAgMCAyIDJoN3YtMkgyVjl6Ii8+JiN4YTs8L3N2Zz4=;container=0;" vertex="1" parent="1">
          <mxGeometry x="650" y="264" width="34" height="36" as="geometry" />
        </mxCell>
        <mxCell id="Whm5asSrESnExFaa3-xb-16" value="Vector Indexes" style="shape=cylinder3;whiteSpace=wrap;html=1;boundedLbl=1;backgroundOutline=1;size=15;" vertex="1" parent="1">
          <mxGeometry x="570" y="490" width="60" height="80" as="geometry" />
        </mxCell>
        <mxCell id="Whm5asSrESnExFaa3-xb-17" value="Azure AI Search" style="rounded=0;whiteSpace=wrap;html=1;fillColor=#dae8fc;strokeColor=#6c8ebf;" vertex="1" parent="1">
          <mxGeometry x="544" y="380" width="120" height="60" as="geometry" />
        </mxCell>
        <mxCell id="Whm5asSrESnExFaa3-xb-18" value="" style="image;aspect=fixed;html=1;points=[];align=center;fontSize=12;image=img/lib/azure2/app_services/Search_Services.svg;" vertex="1" parent="1">
          <mxGeometry x="624" y="410" width="55.37" height="40" as="geometry" />
        </mxCell>
        <mxCell id="Whm5asSrESnExFaa3-xb-19" value="" style="endArrow=classic;html=1;rounded=0;exitX=0.25;exitY=0;exitDx=0;exitDy=0;entryX=0.25;entryY=1;entryDx=0;entryDy=0;flowAnimation=1;fillColor=#dae8fc;strokeColor=#6c8ebf;" edge="1" parent="1" source="Whm5asSrESnExFaa3-xb-17" target="Whm5asSrESnExFaa3-xb-9">
          <mxGeometry width="50" height="50" relative="1" as="geometry">
            <mxPoint x="441" y="254" as="sourcePoint" />
            <mxPoint x="554" y="255" as="targetPoint" />
          </mxGeometry>
        </mxCell>
        <mxCell id="Whm5asSrESnExFaa3-xb-20" value="" style="endArrow=classic;html=1;rounded=0;exitX=0.667;exitY=1.017;exitDx=0;exitDy=0;flowAnimation=1;fillColor=#dae8fc;strokeColor=#6c8ebf;exitPerimeter=0;" edge="1" parent="1" source="Whm5asSrESnExFaa3-xb-9">
          <mxGeometry width="50" height="50" relative="1" as="geometry">
            <mxPoint x="554" y="285" as="sourcePoint" />
            <mxPoint x="624" y="380" as="targetPoint" />
          </mxGeometry>
        </mxCell>
        <mxCell id="Whm5asSrESnExFaa3-xb-22" value="" style="endArrow=classic;html=1;rounded=0;exitX=0.5;exitY=0;exitDx=0;exitDy=0;flowAnimation=1;fillColor=#dae8fc;strokeColor=#6c8ebf;exitPerimeter=0;" edge="1" parent="1" source="Whm5asSrESnExFaa3-xb-16">
          <mxGeometry width="50" height="50" relative="1" as="geometry">
            <mxPoint x="584" y="390" as="sourcePoint" />
            <mxPoint x="600" y="440" as="targetPoint" />
          </mxGeometry>
        </mxCell>
        <mxCell id="Whm5asSrESnExFaa3-xb-23" value="1" style="ellipse;whiteSpace=wrap;html=1;aspect=fixed;" vertex="1" parent="1">
          <mxGeometry x="250" y="210" width="30" height="30" as="geometry" />
        </mxCell>
        <mxCell id="Whm5asSrESnExFaa3-xb-24" value="2" style="ellipse;whiteSpace=wrap;html=1;aspect=fixed;" vertex="1" parent="1">
          <mxGeometry x="380" y="140" width="30" height="30" as="geometry" />
        </mxCell>
        <mxCell id="Whm5asSrESnExFaa3-xb-25" value="3" style="ellipse;whiteSpace=wrap;html=1;aspect=fixed;" vertex="1" parent="1">
          <mxGeometry x="480" y="210" width="30" height="30" as="geometry" />
        </mxCell>
        <mxCell id="Whm5asSrESnExFaa3-xb-27" value="4" style="ellipse;whiteSpace=wrap;html=1;aspect=fixed;" vertex="1" parent="1">
          <mxGeometry x="634" y="330" width="30" height="30" as="geometry" />
        </mxCell>
        <mxCell id="Whm5asSrESnExFaa3-xb-29" value="5" style="ellipse;whiteSpace=wrap;html=1;aspect=fixed;" vertex="1" parent="1">
          <mxGeometry x="540" y="320" width="30" height="30" as="geometry" />
        </mxCell>
        <mxCell id="Whm5asSrESnExFaa3-xb-31" value="6" style="ellipse;whiteSpace=wrap;html=1;aspect=fixed;" vertex="1" parent="1">
          <mxGeometry x="460" y="280" width="30" height="30" as="geometry" />
        </mxCell>
        <mxCell id="Whm5asSrESnExFaa3-xb-33" value="" style="endArrow=classic;html=1;rounded=0;flowAnimation=1;fillColor=#dae8fc;strokeColor=#6c8ebf;entryX=-0.033;entryY=1.1;entryDx=0;entryDy=0;entryPerimeter=0;" edge="1" parent="1" target="Whm5asSrESnExFaa3-xb-7">
          <mxGeometry width="50" height="50" relative="1" as="geometry">
            <mxPoint x="360" y="210" as="sourcePoint" />
            <mxPoint x="360" y="150" as="targetPoint" />
          </mxGeometry>
        </mxCell>
        <mxCell id="Whm5asSrESnExFaa3-xb-34" value="7" style="ellipse;whiteSpace=wrap;html=1;aspect=fixed;" vertex="1" parent="1">
          <mxGeometry x="320" y="170" width="30" height="30" as="geometry" />
        </mxCell>
        <mxCell id="Whm5asSrESnExFaa3-xb-35" value="" style="shape=image;html=1;verticalAlign=top;verticalLabelPosition=bottom;labelBackgroundColor=#ffffff;imageAspect=0;aspect=fixed;image=https://cdn1.iconfinder.com/data/icons/nuvola2/128x128/mimetypes/pdf.png" vertex="1" parent="1">
          <mxGeometry x="684" y="520" width="50" height="50" as="geometry" />
        </mxCell>
        <mxCell id="Whm5asSrESnExFaa3-xb-38" value="" style="endArrow=classic;html=1;rounded=0;exitX=0;exitY=0.5;exitDx=0;exitDy=0;flowAnimation=1;fillColor=#dae8fc;strokeColor=#6c8ebf;entryX=1;entryY=0;entryDx=0;entryDy=52.5;entryPerimeter=0;" edge="1" parent="1" source="Whm5asSrESnExFaa3-xb-35" target="Whm5asSrESnExFaa3-xb-16">
          <mxGeometry width="50" height="50" relative="1" as="geometry">
            <mxPoint x="610" y="500" as="sourcePoint" />
            <mxPoint x="610" y="450" as="targetPoint" />
          </mxGeometry>
        </mxCell>
        <mxCell id="Whm5asSrESnExFaa3-xb-39" value="" style="shape=image;html=1;verticalAlign=top;verticalLabelPosition=bottom;labelBackgroundColor=#ffffff;imageAspect=0;aspect=fixed;image=https://cdn1.iconfinder.com/data/icons/nuvola2/128x128/mimetypes/pdf.png" vertex="1" parent="1">
          <mxGeometry x="694" y="530" width="50" height="50" as="geometry" />
        </mxCell>
        <mxCell id="Whm5asSrESnExFaa3-xb-40" value="" style="shape=image;html=1;verticalAlign=top;verticalLabelPosition=bottom;labelBackgroundColor=#ffffff;imageAspect=0;aspect=fixed;image=https://cdn1.iconfinder.com/data/icons/nuvola2/128x128/mimetypes/pdf.png" vertex="1" parent="1">
          <mxGeometry x="704" y="540" width="50" height="50" as="geometry" />
        </mxCell>
      </root>
    </mxGraphModel>
  </diagram>
</mxfile>
